HIERARCHY
ROOT Hips
{
 OFFSET 0.000000 0.000000 0.000000
 CHANNELS 6 Xposition Yposition Zposition Yrotation Xrotation Zrotation
 JOINT Chest
 {
  OFFSET 0.000000 9.585900 0.002600
  CHANNELS 3 Yrotation Xrotation Zrotation
  JOINT Chest2
  {
   OFFSET 0.000000 9.601200 -0.005300
   CHANNELS 3 Yrotation Xrotation Zrotation
   JOINT Chest3
   {
    OFFSET 0.000000 9.561800 0.000000
    CHANNELS 3 Yrotation Xrotation Zrotation
    JOINT Chest4
    {
     OFFSET 0.000000 9.552100 0.000000
     CHANNELS 3 Yrotation Xrotation Zrotation
     JOINT Neck
     {
      OFFSET 0.000000 14.453000 0.000000
      CHANNELS 3 Yrotation Xrotation Zrotation
      JOINT Head
      {
       OFFSET 0.000000 8.936500 -0.011300
       CHANNELS 3 Yrotation Xrotation Zrotation
       End Site
       {
        OFFSET 0.000000 17.073600 -0.006000
       }
      }
     }
     JOINT RightCollar
     {
      OFFSET -2.921100 9.558500 0.000000
      CHANNELS 3 Yrotation Xrotation Zrotation
      JOINT RightShoulder
      {
       OFFSET -13.519700 0.000000 0.000000
       CHANNELS 3 Yrotation Xrotation Zrotation
       JOINT RightElbow
       {
        OFFSET 0.000000 -29.696600 0.000000
        CHANNELS 3 Yrotation Xrotation Zrotation
        JOINT RightWrist
        {
         OFFSET 0.000000 -24.004700 0.000000
         CHANNELS 3 Yrotation Xrotation Zrotation
         End Site
         {
          OFFSET 0.000000 -17.728500 0.000000
         }
        }
       }
      }
     }
     JOINT LeftCollar
     {
      OFFSET 2.921100 9.558500 0.000000
      CHANNELS 3 Yrotation Xrotation Zrotation
      JOINT LeftShoulder
      {
       OFFSET 13.519700 0.000000 0.000000
       CHANNELS 3 Yrotation Xrotation Zrotation
       JOINT LeftElbow
       {
        OFFSET 0.000000 -29.696600 0.000000
        CHANNELS 3 Yrotation Xrotation Zrotation
        JOINT LeftWrist
        {
         OFFSET 0.000000 -24.004700 0.000000
         CHANNELS 3 Yrotation Xrotation Zrotation
         End Site
         {
          OFFSET 0.000000 -17.728500 0.000000
         }
        }
       }
      }
     }
    }
   }
  }
 }
 JOINT RightHip
 {
  OFFSET -7.771700 -0.012900 -0.001300
  CHANNELS 3 Yrotation Xrotation Zrotation
  JOINT RightKnee
  {
   OFFSET 0.000000 -40.869800 0.001200
   CHANNELS 3 Yrotation Xrotation Zrotation
   JOINT RightAnkle
   {
    OFFSET 0.000000 -39.717900 0.002100
    CHANNELS 3 Yrotation Xrotation Zrotation
    JOINT RightToe
    {
     OFFSET 0.000000 -4.965400 11.033500
     CHANNELS 3 Yrotation Xrotation Zrotation
     End Site
     {
      OFFSET 0.000000 -1.423100 5.872300
     }
    }
   }
  }
 }
 JOINT LeftHip
 {
  OFFSET 7.771700 -0.012900 -0.001300
  CHANNELS 3 Yrotation Xrotation Zrotation
  JOINT LeftKnee
  {
   OFFSET 0.000000 -40.869800 0.001200
   CHANNELS 3 Yrotation Xrotation Zrotation
   JOINT LeftAnkle
   {
    OFFSET 0.000000 -39.717900 0.002100
    CHANNELS 3 Yrotation Xrotation Zrotation
    JOINT LeftToe
    {
     OFFSET 0.000000 -4.965400 11.033500
     CHANNELS 3 Yrotation Xrotation Zrotation
     End Site
     {
      OFFSET 0.000000 -1.423100 5.872300
     }
    }
   }
  }
 }
}
MOTION
Frames: 5
Frame Time: 0.008333
0.000000 85.388000 0.000000 0.000000 -5.767877 0.000000 0.000000 11.653817 0.000000 0.000000 -5.885947 0.000000 0.000000 -0.000000 0.000000 0.000000 -0.000000 0.000000 0.000000 12.528835 0.000000 0.000000 0.711642 0.000000 0.000000 -0.000000 0.000000 0.000000 0.000000 -90.000000 0.000000 -2.309062 0.000000 0.000000 2.309062 0.000000 0.000000 -0.000000 0.000000 0.000000 -0.000000 90.000000 0.000000 -2.309062 0.000000 0.000000 2.309062 0.000000 0.000000 8.520406 0.000000 0.000000 1.905762 0.000000 -0.000000 -4.658285 0.000000 0.000000 -0.000000 0.000000 0.000000 8.520406 0.000000 0.000000 1.905762 0.000000 -0.000000 -4.658285 0.000000 0.000000 -0.000000 0.000000
-81.761804 46.842641 -13.638176 174.569431 -33.633894 -3.577952 0.773244 18.490482 1.961808 0.000807 2.093881 0.184186 0.141396 3.467819 0.380138 0.572520 16.010511 1.686425 -2.254298 20.254963 0.254192 -4.201101 1.796735 1.128209 -0.790972 1.206388 -0.880909 -3.402513 -4.388364 -15.556245 -69.679519 -68.330190 110.023941 -1.505677 -4.353022 -26.648179 -1.658951 -0.434157 1.863876 1.495722 -2.904885 10.820760 69.717028 -72.384822 -101.705808 2.049174 1.658199 15.547551 -1.783841 -53.392756 -1.646347 -155.518720 77.100352 -146.716568 -9.254476 -18.690841 -5.404956 -0.206551 1.312931 -0.102593 -2.747328 -55.116008 14.272412 -115.495864 82.187016 -119.686151 7.828670 -6.992200 5.809495 0.014891 0.023371 -0.016644
-81.767846 46.860047 -13.631398 174.485458 -33.612053 -3.577452 0.748096 18.467031 1.922384 0.056076 2.094456 0.211201 0.145526 3.464994 0.375462 0.587774 16.012016 1.685824 -2.261894 20.156305 0.251217 -4.193949 1.674264 1.131584 -0.734842 1.155815 -0.836190 -3.321440 -4.412266 -15.598840 -69.377607 -68.222308 109.743366 -1.516965 -4.406131 -26.704236 -1.609360 -0.463160 1.833689 1.521386 -2.877054 10.869690 69.721193 -72.368040 -101.803073 2.058916 1.650895 15.563622 -1.685201 -53.430859 -1.471543 -155.612731 77.102771 -146.844292 -9.355985 -18.949988 -5.339164 -0.166604 1.282559 -0.074145 -2.787521 -55.122684 14.374822 -115.410621 82.179232 -119.598151 7.808758 -6.980899 5.789383 0.044262 0.011600 -0.017274
-81.774275 46.880952 -13.624806 174.429963 -33.595020 -3.597527 0.759908 18.451191 1.936379 0.057221 2.094264 0.210457 0.145332 3.462197 0.372721 0.598323 16.014036 1.682678 -2.265500 20.079147 0.246941 -4.200925 1.530946 1.127452 -0.677291 1.099938 -0.799060 -3.251643 -4.437559 -15.637582 -69.135839 -68.144377 109.490377 -1.554407 -4.458421 -26.704378 -1.578928 -0.496005 1.759710 1.552293 -2.838405 10.964150 69.715139 -72.308715 -101.891634 2.081992 1.649838 15.607906 -1.599474 -53.466866 -1.289819 -155.766315 77.114086 -147.030930 -9.403529 -19.208900 -5.267103 -0.175608 1.262886 -0.068478 -2.828327 -55.130131 14.460766 -115.336518 82.174737 -119.503991 7.805015 -6.968582 5.775615 0.071715 0.000980 -0.019865
-81.786464 46.904428 -13.619999 174.393009 -33.587921 -3.594345 0.750319 18.450728 1.917812 0.078774 2.089163 0.220822 0.121561 3.462067 0.360767 0.601812 16.016778 1.678494 -2.275087 20.000770 0.237558 -4.217207 1.385334 1.115818 -0.624372 1.041667 -0.769624 -3.185545 -4.462585 -15.673288 -68.939753 -68.061034 109.334646 -1.565619 -4.509507 -26.736277 -1.546734 -0.505292 1.732482 1.567075 -2.818381 11.011503 69.706313 -72.217010 -101.965766 2.121270 1.664882 15.660172 -1.471503 -53.494326 -1.159657 -156.003012 77.141966 -147.299006 -9.430549 -19.464828 -5.184343 -0.234374 1.250536 -0.086534 -2.876915 -55.115650 14.510912 -115.246480 82.194537 -119.432221 7.797475 -6.945507 5.757535 0.100508 -0.020923 -0.005201
